<svg width="278" height="221" viewBox="0 0 278 221" fill="none" xmlns="http://www.w3.org/2000/svg">
<path d="M276.003 101.9C267.003 55.7196 225.543 20.8996 175.793 20.8996C155.421 20.8603 135.494 26.8633 118.533 38.1496C118.533 38.1496 262.073 104.42 262.353 104.52C275.763 110.52 276.003 101.91 276.003 101.91" fill="#0021F3"/>
<path d="M253.772 185C252.632 185.653 251.351 186.024 250.037 186.081C248.724 186.139 247.416 185.881 246.222 185.33C246.102 185.22 108.592 133.52 80.4124 123.02C75.9824 121.34 73.8824 124.56 73.9924 126.52C77.1224 178.94 121.462 220.43 175.782 220.43C190.568 220.486 205.191 217.349 218.652 211.234C232.114 205.12 244.097 196.171 253.782 185" fill="#0021F3"/>
<path d="M67.7836 111.26C67.5136 108.81 69.0836 106.2 73.9936 108.21C78.9036 110.22 247.274 178.21 247.734 178.46C252.954 180.28 257.734 180.13 259.874 177.13C263.211 172.457 266.11 167.485 268.534 162.28C266.854 165.04 261.444 172.48 253.694 169.51C253.004 169.3 64.3136 90.6597 62.6036 89.9297C55.8736 87.2497 51.5036 93.5097 55.8136 99.3097C56.3836 100.02 71.1936 119.15 71.1936 119.15C71.1936 119.15 67.9936 113.65 67.7836 111.26Z" fill="#F84B36"/>
<path d="M21.7629 26.0898C22.1729 26.2298 261.763 131.28 263.513 132.09C268.633 134.51 277.123 133.32 277.623 126.8C277.693 124.8 277.743 122.8 277.743 120.7C277.767 116.961 277.56 113.224 277.123 109.51C276.893 111.98 275.193 122.97 262.963 117.19C260.833 116.14 14.5329 2.24983 11.1129 0.629831C6.4229 -1.61017 -3.8271 2.08983 1.4929 12.2898C1.6129 12.5698 21.2229 43.8198 21.0129 43.3398C19.0417 38.881 17.5273 34.2339 16.4929 29.4698C15.8529 26.8998 18.1629 24.4698 21.7629 26.0898Z" fill="#F84B36"/>
<path d="M45.8328 67.9397C47.7428 68.6297 255.003 157.48 256.093 158C263.593 161.23 269.813 158.92 272.203 153.47C273.794 148.788 275.064 144.004 276.003 139.15C275.053 141.57 270.633 150.89 260.463 146.93C259.943 146.73 39.7028 47.7297 37.3228 46.6597C31.2728 43.8997 22.5628 49.8997 27.3228 57.2397C28.1128 58.4097 45.3828 83.3097 45.3828 83.3097C45.3828 83.3097 40.3428 74.9997 40.8928 71.0497C40.9268 70.48 41.0961 69.9266 41.3867 69.4355C41.6773 68.9443 42.0808 68.5295 42.5637 68.2255C43.0467 67.9214 43.5952 67.7369 44.1637 67.6872C44.7322 67.6375 45.3044 67.724 45.8328 67.9397Z" fill="#F84B36"/>
</svg>
