<svg width="1350" height="494" viewBox="0 0 1350 494" fill="none" xmlns="http://www.w3.org/2000/svg">
<path d="M411.003 236.9C402.003 190.72 360.543 155.9 310.793 155.9C290.421 155.86 270.494 161.863 253.533 173.15C253.533 173.15 397.073 239.42 397.353 239.52C410.763 245.52 411.003 236.91 411.003 236.91" fill="#0021F3"/>
<path d="M388.772 320C387.632 320.653 386.351 321.024 385.037 321.081C383.724 321.139 382.416 320.881 381.222 320.33C381.102 320.22 243.592 268.52 215.412 258.02C210.982 256.34 208.882 259.56 208.992 261.52C212.122 313.94 256.462 355.43 310.782 355.43C325.568 355.486 340.191 352.349 353.652 346.234C367.114 340.12 379.097 331.171 388.782 320" fill="#0021F3"/>
<path d="M202.784 246.26C202.514 243.81 204.084 241.2 208.994 243.21C213.904 245.22 382.274 313.21 382.734 313.46C387.954 315.28 392.734 315.13 394.874 312.13C398.211 307.457 401.11 302.485 403.534 297.28C401.854 300.04 396.444 307.48 388.694 304.51C388.004 304.3 199.314 225.66 197.604 224.93C190.874 222.25 186.504 228.51 190.814 234.31C191.384 235.02 206.194 254.15 206.194 254.15C206.194 254.15 202.994 248.65 202.784 246.26Z" fill="#F84B36"/>
<path d="M156.763 161.09C157.173 161.23 396.763 266.28 398.513 267.09C403.633 269.51 412.123 268.32 412.623 261.8C412.693 259.8 412.743 257.8 412.743 255.7C412.767 251.961 412.56 248.224 412.123 244.51C411.893 246.98 410.193 257.97 397.963 252.19C395.833 251.14 149.533 137.25 146.113 135.63C141.423 133.39 131.173 137.09 136.493 147.29C136.613 147.57 156.223 178.82 156.013 178.34C154.042 173.881 152.527 169.234 151.493 164.47C150.853 161.9 153.163 159.47 156.763 161.09Z" fill="#F84B36"/>
<path d="M180.833 202.94C182.743 203.63 390.003 292.48 391.093 293C398.593 296.23 404.813 293.92 407.203 288.47C408.794 283.788 410.064 279.004 411.003 274.15C410.053 276.57 405.633 285.89 395.463 281.93C394.943 281.73 174.703 182.73 172.323 181.66C166.273 178.9 157.563 184.9 162.323 192.24C163.113 193.41 180.383 218.31 180.383 218.31C180.383 218.31 175.343 210 175.893 206.05C175.927 205.48 176.096 204.927 176.387 204.435C176.677 203.944 177.081 203.53 177.564 203.225C178.047 202.921 178.595 202.737 179.164 202.687C179.732 202.638 180.304 202.724 180.833 202.94Z" fill="#F84B36"/>
<path d="M1056.39 229.1C1057.83 229.342 1059.18 229.932 1060.33 230.818C1061.48 231.704 1062.39 232.858 1062.99 234.18C1064.12 236.9 1064.67 243.18 1064.67 253.34V283.81H1038.14V253.34C1038.14 243.21 1038.74 236.9 1039.95 234.18C1040.54 232.869 1041.44 231.721 1042.57 230.836C1043.7 229.951 1045.03 229.355 1046.44 229.1V221.93H1003.85V229.1C1005.49 229.309 1007.04 229.927 1008.38 230.897C1009.71 231.867 1010.77 233.158 1011.47 234.65C1012.47 236.73 1012.92 242.97 1012.92 253.34V325.47C1012.92 335.77 1012.47 341.97 1011.47 344.08C1010.78 345.571 1009.71 346.86 1008.38 347.825C1007.04 348.791 1005.49 349.402 1003.85 349.6V356.8H1046.44V349.6C1045.03 349.377 1043.69 348.802 1042.56 347.929C1041.43 347.055 1040.53 345.91 1039.95 344.6C1038.74 341.92 1038.14 335.53 1038.14 325.51V292.92H1064.67V325.47C1064.67 335.47 1064.12 341.88 1062.99 344.56C1062.4 345.881 1061.49 347.032 1060.33 347.906C1059.18 348.78 1057.83 349.349 1056.39 349.56V356.76H1099.12V349.56C1097.48 349.375 1095.92 348.769 1094.58 347.802C1093.25 346.835 1092.18 345.539 1091.49 344.04C1090.49 341.93 1089.93 335.73 1089.93 325.43V253.34C1089.93 242.97 1090.48 236.73 1091.49 234.65C1092.19 233.15 1093.25 231.853 1094.59 230.881C1095.92 229.909 1097.48 229.296 1099.12 229.1V221.93H1056.39V229.1Z" fill="#0021F3"/>
<path d="M504.303 349.44C498.613 349.44 494.493 347.97 491.953 344.93C489.186 341.564 487.398 337.503 486.783 333.19C486.503 331.01 486.393 325.07 486.393 315.47V190.26L531.203 356.81H537.003L580.213 193V321.35C580.213 331.14 579.923 337.23 579.213 339.45C578.697 342.064 577.473 344.486 575.673 346.45C573.235 348.51 570.112 349.581 566.923 349.45H563.003V356.82H626.903V349.45H622.903C619.443 349.45 616.723 348.56 614.653 346.66C612.728 344.898 611.341 342.627 610.653 340.11C610.013 337.6 609.653 331.38 609.653 321.36V196.65C609.653 186.94 610.033 180.95 610.653 178.59C611.248 176.06 612.5 173.731 614.283 171.84C616.661 169.732 619.769 168.637 622.943 168.79H626.943V161.48H577.143L543.923 290.23L509.533 161.48H459.613V168.79H463.493C466.493 168.655 469.432 169.667 471.713 171.62C473.646 173.348 475.05 175.587 475.763 178.08C476.443 180.55 476.763 186.77 476.763 196.65V316.2C476.763 324.97 476.693 329.83 476.593 330.87C476.169 334.516 475.205 338.078 473.733 341.44C472.613 343.908 470.754 345.966 468.413 347.33C466.178 348.804 463.538 349.542 460.863 349.44H459.623V356.81H504.303V349.44Z" fill="#0021F3"/>
<path d="M684.863 339.45C684.003 342.82 682.763 345.06 681.183 346.45C678.821 348.526 675.744 349.602 672.603 349.45H668.603V356.81H732.603V349.45H728.603C725.053 349.45 722.323 348.56 720.303 346.65C718.402 344.862 716.996 342.613 716.223 340.12C715.623 337.6 715.223 331.38 715.223 321.35V172.71H724.003C732.163 172.71 738.233 175.48 741.913 181.17C747.223 188.85 746.403 199.96 747.803 214.36H755.253V161.48H645.773V214.36H653.183C654.573 199.96 653.843 188.85 659.103 181.17C662.803 175.48 668.843 172.71 677.053 172.71H685.903V321.34C685.903 331.14 685.523 337.23 684.903 339.45" fill="#0021F3"/>
<path d="M875.613 339.34C890.353 320.28 891.943 259.34 876.613 239.41C863.253 221.86 840.163 219.58 819.383 219.8V172.71H843.383C851.553 172.71 857.553 175.48 861.263 181.17C866.543 188.85 865.793 199.96 867.163 214.36H874.593V161.48H773.883V168.79C779.493 168.79 783.313 169.64 785.393 171.29C787.451 172.97 788.922 175.26 789.593 177.83C790.463 180.54 790.833 185.25 790.833 195.75V320.49C790.833 331.06 790.463 337.67 789.593 340.3C788.929 342.88 787.474 345.188 785.433 346.9C783.343 348.65 779.603 349.44 773.883 349.44V356.82H836.003C853.343 356.82 866.563 350.94 875.643 339.34M821.713 342.2C820.073 339.5 819.353 335.59 819.353 330.48V323.21V231.11C828.483 231.05 835.423 232.34 840.093 235.21C844.763 238.08 848.353 243.21 851.003 250.42C857.583 268.42 857.703 308.42 851.693 326.21C849.503 332.64 846.433 337.62 842.373 340.99C838.72 344.277 833.987 346.11 829.073 346.14C827.602 346.202 826.141 345.869 824.842 345.176C823.542 344.483 822.452 343.456 821.683 342.2H821.713Z" fill="#0021F3"/>
<path d="M978.193 336.35C977.435 335.341 976.944 334.158 976.763 332.91C976.473 331.34 976.383 327.42 976.383 321.23V271.8C976.383 257.28 975.893 247.96 975.043 243.95C972.733 231.71 965.213 218.31 947.043 218.24C940.367 218.253 933.806 219.974 927.983 223.24C921.892 226.574 916.911 231.618 913.653 237.75C910.273 244.04 908.753 249.28 908.073 258.41C907.673 269.86 914.713 274.41 921.833 274.41C923.527 274.414 925.205 274.083 926.771 273.438C928.337 272.792 929.761 271.844 930.96 270.648C932.159 269.451 933.11 268.03 933.76 266.466C934.409 264.901 934.743 263.224 934.743 261.53C934.703 259.105 934.012 256.736 932.743 254.67C930.743 251.09 921.413 244.15 930.013 233.3C931.253 231.954 932.764 230.885 934.445 230.163C936.127 229.44 937.943 229.082 939.773 229.11C946.773 229.11 948.773 234.11 950.113 238.99C950.843 241.68 951.113 248.09 951.113 258.2V271.8C932.573 285.36 920.513 296.32 915.013 304.53C909.513 312.74 905.723 319.96 905.723 330.25C905.723 345.53 914.203 358.65 927.213 358.57C940.223 358.49 947.363 349.94 951.113 337.02C951.683 344.34 953.383 349.75 956.113 353.32C957.417 355.058 959.122 356.456 961.083 357.394C963.043 358.333 965.201 358.784 967.373 358.71C971.553 358.71 976.813 357.37 980.003 354.21C983.193 351.05 986.003 346.21 989.003 339.15L984.003 334.31C982.383 337.76 978.803 337.18 978.233 336.31M951.233 325.62C942.233 340.45 921.333 331.23 931.893 308.74C935.413 301.03 943.993 288.26 951.233 281.4V325.62Z" fill="#0021F3"/>
<path d="M1207.24 344.09C1205.78 341.77 1201.04 333.19 1192.99 314.43L1173.13 268.05C1173.13 268.05 1191.32 238.92 1198.23 233.62C1200.8 231.176 1204.14 229.701 1207.67 229.45V222.15H1169.92V229.45C1182.92 229.45 1181.42 240.31 1178.19 245.76C1177 247.67 1151 288 1151 288V161.48H1116.68V168.79C1120.44 169.6 1122.89 171.29 1124.01 173.79C1125.13 176.29 1125.82 182.58 1125.82 192.79V325.56C1125.82 335.84 1125.28 341.96 1124.26 344.09C1123.58 345.587 1122.52 346.883 1121.2 347.857C1119.87 348.83 1118.32 349.447 1116.68 349.65V356.8H1160.26V349.65C1156.52 348.92 1154.03 347.27 1152.87 344.79C1151.71 342.31 1151 340.49 1151 325.56V303.36L1156.52 294.82L1173.13 331.82C1175.7 337.82 1176.94 341.82 1176.94 344.05C1176.92 345.401 1176.48 346.711 1175.66 347.79C1175.15 348.412 1174.5 348.902 1173.77 349.218C1173.03 349.535 1172.22 349.669 1171.42 349.61V356.76H1215V349.61C1211.89 349.19 1209.28 347.35 1207.24 344.05" fill="#0021F3"/>
</svg>
